<?xml version="1.0" standalone="no"?>
<!DOCTYPE svg PUBLIC "-//W3C//DTD SVG 20010904//EN"
 "http://www.w3.org/TR/2001/REC-SVG-20010904/DTD/svg10.dtd">
<svg version="1.0" xmlns="http://www.w3.org/2000/svg"
 width="512.000000pt" height="512.000000pt" viewBox="0 0 512.000000 512.000000"
 preserveAspectRatio="xMidYMid meet">

<g transform="translate(0.000000,512.000000) scale(0.100000,-0.100000)"
fill="#000000" stroke="none">
<path d="M3276 4179 c-87 -12 -233 -60 -312 -104 -222 -124 -380 -328 -445
-576 -24 -90 -32 -272 -16 -378 l8 -54 -92 7 c-464 35 -943 220 -1336 514
-118 89 -338 295 -417 391 l-36 44 -35 -77 c-61 -131 -78 -211 -79 -376 -1
-159 13 -235 66 -364 54 -132 181 -293 303 -384 l30 -23 -60 7 c-84 9 -192 38
-277 73 -39 17 -74 28 -77 25 -3 -2 1 -48 7 -101 14 -112 59 -252 107 -339
114 -203 319 -369 532 -431 35 -10 63 -21 63 -25 0 -16 -152 -30 -266 -25
l-122 5 28 -69 c122 -296 402 -507 730 -551 l89 -11 -52 -39 c-149 -112 -380
-224 -572 -277 -186 -53 -281 -65 -506 -66 l-206 0 56 -34 c100 -60 303 -158
426 -204 606 -229 1324 -218 1925 30 752 310 1331 1014 1514 1843 39 181 56
311 63 502 l6 177 98 81 c54 45 129 116 167 158 75 84 175 212 169 218 -2 2
-48 -12 -103 -32 -103 -37 -262 -78 -349 -90 l-50 -7 60 45 c145 107 250 244
314 406 l19 49 -114 -57 c-109 -55 -299 -124 -412 -150 l-53 -12 -52 49 c-194
182 -465 267 -741 232z"/>
</g>
</svg>
