<?xml version="1.0" standalone="no"?>
<!DOCTYPE svg PUBLIC "-//W3C//DTD SVG 20010904//EN"
 "http://www.w3.org/TR/2001/REC-SVG-20010904/DTD/svg10.dtd">
<svg version="1.0" xmlns="http://www.w3.org/2000/svg"
 width="30px" height="30px"  enable-background="new 0 0 48 48" viewBox="0 0 512.000000 512.000000"
 preserveAspectRatio="xMidYMid meet">

<g transform="translate(0.000000,512.000000) scale(0.100000,-0.100000)"
fill="#000000" stroke="none">
<path d="M2803 4559 c-205 -26 -362 -100 -493 -229 -119 -118 -189 -252 -231
-445 -17 -75 -21 -144 -26 -407 l-6 -318 -211 -2 -211 -3 -3 -382 -2 -383 215
0 215 0 0 -1090 0 -1090 455 0 455 0 0 1090 0 1090 305 0 305 0 4 23 c3 12 19
164 36 337 17 173 34 336 37 363 l6 47 -347 0 -347 0 3 263 c3 248 4 264 25
303 12 23 39 53 60 65 37 23 44 24 316 27 l277 3 0 375 0 374 -387 -1 c-214
-1 -416 -5 -450 -10z"/>
</g>
</svg>
