<svg version="1.1" id="Layer_1" xmlns="http://www.w3.org/2000/svg" xmlns:xlink="http://www.w3.org/1999/xlink" x="0px" y="0px"
	 width="100%" viewBox="0 0 240 240" enable-background="new 0 0 240 240" xml:space="preserve">
<path fill="#38E1AF" opacity="1.000000" stroke="none" 
	d="
M140.000000,241.000000 
	C93.333336,241.000000 47.166672,241.000000 1.000006,241.000000 
	C1.000004,161.000000 1.000004,81.000015 1.000002,1.000017 
	C80.999992,1.000011 160.999985,1.000011 240.999969,1.000006 
	C240.999985,80.999985 240.999985,160.999969 241.000000,240.999969 
	C207.500000,241.000000 174.000000,241.000000 140.000000,241.000000 
M28.736803,148.692596 
	C28.253567,152.395721 26.384750,154.995895 22.563229,155.528717 
	C18.851849,156.046173 18.890501,158.002838 19.964497,160.769531 
	C31.234219,160.769531 42.332016,160.769531 53.554108,160.769531 
	C53.554108,159.074707 53.554108,157.671371 53.554108,156.340851 
	C43.923405,154.087311 42.998215,152.935654 42.988335,143.488724 
	C42.985893,141.155533 42.922142,138.820145 42.999527,136.489532 
	C43.280834,128.017120 43.209583,119.505600 44.064651,111.089432 
	C44.617382,105.649040 48.081043,101.683014 53.595699,99.980667 
	C64.328247,96.667572 72.032707,102.222000 72.840714,114.843201 
	C73.520752,125.465370 73.166519,136.161255 73.062698,146.822495 
	C73.019470,151.261459 70.812790,154.637817 66.250427,155.476440 
	C62.501095,156.165604 62.908772,158.156418 63.559101,160.864807 
	C75.152191,160.864807 86.431801,160.864807 98.053940,160.864807 
	C98.134331,159.265823 98.205864,157.843018 98.273643,156.494888 
	C88.725342,153.788910 87.690613,152.445129 87.668312,142.805450 
	C87.646729,133.472717 87.501724,124.136131 87.713036,114.808083 
	C87.956894,104.043236 98.867691,96.426399 108.848244,99.919472 
	C116.399193,102.562195 117.468140,109.204681 117.704651,115.783867 
	C118.075638,126.103699 117.857788,136.445160 117.862762,146.777466 
	C117.865082,151.584290 115.733116,154.890961 110.776245,155.496658 
	C107.133827,155.941711 106.455231,157.592102 107.560127,160.810837 
	C119.055077,160.810837 130.327316,160.810837 141.842270,160.810837 
	C141.842270,159.148056 141.842270,157.733383 141.842270,156.376846 
	C131.984070,154.022873 131.409729,153.230225 131.349884,143.119568 
	C131.283813,131.956589 131.469528,120.777603 130.921692,109.636269 
	C130.421738,99.469093 123.833939,92.052589 114.313026,90.403191 
	C104.217232,88.654205 95.564262,91.735718 88.590805,99.312561 
	C87.605446,100.383163 86.705002,101.531906 85.693367,102.729607 
	C80.927124,94.731071 74.160126,90.500778 65.162712,90.006836 
	C55.908821,89.498817 49.134300,94.371124 42.650063,101.524658 
	C42.332020,97.089134 42.089298,93.704079 41.813503,89.857735 
	C34.147198,91.676895 27.009613,93.209801 19.996475,95.184639 
	C18.750475,95.535507 18.021790,97.723511 16.694582,99.561150 
	C28.859112,101.395584 28.891832,101.424820 28.882545,112.320976 
	C28.872461,124.153305 28.845886,135.985626 28.736803,148.692596 
M212.470764,92.990547 
	C207.036728,92.990547 201.602692,92.990547 196.069702,92.990547 
	C196.069702,94.954697 196.069702,96.352791 196.069702,97.688858 
	C204.634384,99.309052 206.534882,100.744804 204.780197,105.668625 
	C200.140488,118.688026 194.939789,131.507523 189.502426,145.598587 
	C183.634933,131.948196 178.289856,119.616661 173.036682,107.246101 
	C170.595047,101.496353 171.782166,99.451645 177.969360,98.305023 
	C179.220169,98.073219 180.484100,97.912262 182.048401,97.671486 
	C181.863037,95.924255 181.718246,94.559402 181.583725,93.291336 
	C169.534943,93.291336 157.941147,93.291336 146.378372,93.291336 
	C145.758331,96.091255 146.023697,97.422874 149.072906,98.629044 
	C151.935089,99.761230 154.894470,102.543266 156.222168,105.350754 
	C164.678558,123.232338 172.689957,141.324249 180.865845,159.338776 
	C181.594116,160.943405 182.450134,162.490067 182.993561,163.563446 
	C187.809952,164.120316 189.459671,161.588730 190.878326,158.229904 
	C198.186874,140.926117 205.507690,123.623405 213.210922,106.494240 
	C214.588470,103.431084 217.324875,100.248352 220.261032,98.813400 
	C223.476257,97.242058 223.342804,95.787766 222.705078,92.990547 
	C219.413254,92.990547 216.434265,92.990547 212.470764,92.990547 
z"/>
<path fill="#FAFDFC" opacity="1.000000" stroke="none" 
	d="
M28.781654,148.255280 
	C28.845886,135.985626 28.872461,124.153305 28.882545,112.320976 
	C28.891832,101.424820 28.859112,101.395584 16.694582,99.561150 
	C18.021790,97.723511 18.750475,95.535507 19.996475,95.184639 
	C27.009613,93.209801 34.147198,91.676895 41.813503,89.857735 
	C42.089298,93.704079 42.332020,97.089134 42.650063,101.524658 
	C49.134300,94.371124 55.908821,89.498817 65.162712,90.006836 
	C74.160126,90.500778 80.927124,94.731071 85.693367,102.729607 
	C86.705002,101.531906 87.605446,100.383163 88.590805,99.312561 
	C95.564262,91.735718 104.217232,88.654205 114.313026,90.403191 
	C123.833939,92.052589 130.421738,99.469093 130.921692,109.636269 
	C131.469528,120.777603 131.283813,131.956589 131.349884,143.119568 
	C131.409729,153.230225 131.984070,154.022873 141.842270,156.376846 
	C141.842270,157.733383 141.842270,159.148056 141.842270,160.810837 
	C130.327316,160.810837 119.055077,160.810837 107.560127,160.810837 
	C106.455231,157.592102 107.133827,155.941711 110.776245,155.496658 
	C115.733116,154.890961 117.865082,151.584290 117.862762,146.777466 
	C117.857788,136.445160 118.075638,126.103699 117.704651,115.783867 
	C117.468140,109.204681 116.399193,102.562195 108.848244,99.919472 
	C98.867691,96.426399 87.956894,104.043236 87.713036,114.808083 
	C87.501724,124.136131 87.646729,133.472717 87.668312,142.805450 
	C87.690613,152.445129 88.725342,153.788910 98.273643,156.494888 
	C98.205864,157.843018 98.134331,159.265823 98.053940,160.864807 
	C86.431801,160.864807 75.152191,160.864807 63.559101,160.864807 
	C62.908772,158.156418 62.501095,156.165604 66.250427,155.476440 
	C70.812790,154.637817 73.019470,151.261459 73.062698,146.822495 
	C73.166519,136.161255 73.520752,125.465370 72.840714,114.843201 
	C72.032707,102.222000 64.328247,96.667572 53.595699,99.980667 
	C48.081043,101.683014 44.617382,105.649040 44.064651,111.089432 
	C43.209583,119.505600 43.280834,128.017120 42.999527,136.489532 
	C42.922142,138.820145 42.985893,141.155533 42.988335,143.488724 
	C42.998215,152.935654 43.923405,154.087311 53.554108,156.340851 
	C53.554108,157.671371 53.554108,159.074707 53.554108,160.769531 
	C42.332016,160.769531 31.234219,160.769531 19.964497,160.769531 
	C18.890501,158.002838 18.851849,156.046173 22.563229,155.528717 
	C26.384750,154.995895 28.253567,152.395721 28.781654,148.255280 
z"/>
<path fill="#FAFDFC" opacity="1.000000" stroke="none" 
	d="
M212.963028,92.990547 
	C216.434265,92.990547 219.413254,92.990547 222.705078,92.990547 
	C223.342804,95.787766 223.476257,97.242058 220.261032,98.813400 
	C217.324875,100.248352 214.588470,103.431084 213.210922,106.494240 
	C205.507690,123.623405 198.186874,140.926117 190.878326,158.229904 
	C189.459671,161.588730 187.809952,164.120316 182.993561,163.563446 
	C182.450134,162.490067 181.594116,160.943405 180.865845,159.338776 
	C172.689957,141.324249 164.678558,123.232338 156.222168,105.350754 
	C154.894470,102.543266 151.935089,99.761230 149.072906,98.629044 
	C146.023697,97.422874 145.758331,96.091255 146.378372,93.291336 
	C157.941147,93.291336 169.534943,93.291336 181.583725,93.291336 
	C181.718246,94.559402 181.863037,95.924255 182.048401,97.671486 
	C180.484100,97.912262 179.220169,98.073219 177.969360,98.305023 
	C171.782166,99.451645 170.595047,101.496353 173.036682,107.246101 
	C178.289856,119.616661 183.634933,131.948196 189.502426,145.598587 
	C194.939789,131.507523 200.140488,118.688026 204.780197,105.668625 
	C206.534882,100.744804 204.634384,99.309052 196.069702,97.688858 
	C196.069702,96.352791 196.069702,94.954697 196.069702,92.990547 
	C201.602692,92.990547 207.036728,92.990547 212.963028,92.990547 
z"/>
</svg>